<?xml version="1.0" standalone="no"?>
<!DOCTYPE svg PUBLIC "-//W3C//DTD SVG 20010904//EN"
 "http://www.w3.org/TR/2001/REC-SVG-20010904/DTD/svg10.dtd">
<svg version="1.0" xmlns="http://www.w3.org/2000/svg"
 width="512.000000pt" height="512.000000pt" viewBox="0 0 512.000000 512.000000"
 preserveAspectRatio="xMidYMid meet">

<g transform="translate(0.000000,512.000000) scale(0.100000,-0.100000)"
fill="#000000" stroke="currentColor" stroke-width="150">
<path d="M2269 4005 l-284 -875 -926 -2 -925 -3 730 -530 c401 -291 737 -537
747 -545 18 -14 5 -57 -266 -890 -156 -481 -283 -876 -280 -878 2 -2 337 239
744 535 408 296 745 538 751 538 5 0 343 -242 751 -538 407 -296 742 -537 744
-535 3 2 -124 397 -280 878 -156 481 -282 876 -280 879 2 4 338 249 747 546
l744 540 -925 3 -926 2 -284 875 c-157 481 -287 875 -291 875 -4 0 -134 -394
-291 -875z m551 -175 l254 -780 830 -2 831 -3 -672 -488 -672 -487 20 -58
c115 -347 488 -1507 485 -1510 -3 -2 -301 211 -663 474 -362 263 -665 478
-673 478 -8 0 -311 -215 -673 -478 -362 -263 -660 -476 -663 -474 -3 3 370
1163 485 1510 l20 58 -672 487 -672 488 831 3 830 2 254 780 c140 429 257 780
260 780 3 0 120 -351 260 -780z"/>
</g>
</svg>
