<?xml version="1.0" encoding="UTF-8"?>
<svg version="1.1" xmlns="http://www.w3.org/2000/svg" width="512" height="512">
<path d="M0 0 C0.66 0 1.32 0 2 0 C26.21995037 73.36522685 26.21995037 73.36522685 35.5625 102.6875 C43.26396106 126.82737375 51.1348451 150.91296313 59 175 C120.38 175.33 181.76 175.66 245 176 C245 176.66 245 177.32 245 178 C243.63330078 179.21411133 243.63330078 179.21411133 241.6953125 180.58203125 C240.97609619 181.09499756 240.25687988 181.60796387 239.51586914 182.13647461 C238.72688232 182.68956299 237.93789551 183.24265137 237.125 183.8125 C235.45953745 184.99725813 233.79417557 186.18215778 232.12890625 187.3671875 C231.27312988 187.97272461 230.41735352 188.57826172 229.53564453 189.20214844 C225.69523375 191.92512022 221.87807075 194.6798791 218.0625 197.4375 C217.32692871 197.96811035 216.59135742 198.4987207 215.83349609 199.04541016 C210.27951543 203.05762217 204.76037245 207.11567123 199.25 211.1875 C192.73131921 216.00394216 186.1755172 220.76022935 179.5703125 225.45703125 C168.33484157 233.44845775 157.19855572 241.57422395 146.10888672 249.76635742 C138.54000603 255.3520272 130.91668417 260.86042052 123.28222656 266.35595703 C118.55033105 269.76466311 113.82559969 273.18330477 109.09936523 276.59985352 C104.74279829 279.74724263 100.37616082 282.87990631 96 286 C97.44609529 293.12824132 99.49038636 299.91233673 101.7890625 306.80859375 C102.3517836 308.51548119 102.3517836 308.51548119 102.9258728 310.2568512 C103.94331266 313.34191953 104.96430734 316.42578523 105.98651123 319.50927734 C107.72864718 324.77049127 109.45919496 330.03553896 111.19091034 335.30018997 C111.63256824 336.64284416 112.07436691 337.98545206 112.51630402 339.32801437 C117.07752767 353.18682672 121.53001847 367.07937972 125.94827271 380.984375 C129.75629014 392.96424874 133.61962779 404.92392609 137.5755806 416.85575485 C138.24949814 418.88904397 138.92233226 420.92268838 139.59481812 422.95645142 C140.03910299 424.29975045 140.48340834 425.64304271 140.92773438 426.98632812 C141.14646524 427.64763418 141.36519611 428.30894024 141.59055519 428.99028587 C142.89128465 432.91966713 144.20038934 436.84613966 145.51550388 440.77072811 C146.51838898 443.77069498 147.51010398 446.77435806 148.50390625 449.77734375 C149.05879478 451.41883644 149.05879478 451.41883644 149.62489319 453.0934906 C149.95436447 454.0950972 150.28383575 455.0967038 150.62329102 456.12866211 C150.91478531 457.0015538 151.2062796 457.8744455 151.50660706 458.77378845 C152 461 152 461 151 464 C149.8984375 463.20442708 148.796875 462.40885417 147.6953125 461.61328125 C146.97609619 461.09386963 146.25687988 460.57445801 145.51586914 460.03930664 C143.89778232 458.87064248 142.27978353 457.70185644 140.66186523 456.53295898 C136.59818606 453.59731798 132.53347686 450.66314716 128.46484375 447.734375 C119.97383561 441.61870428 111.52457791 435.45048938 103.10791016 429.23291016 C95.5233116 423.63567826 87.8841167 418.11591373 80.23388672 412.60888672 C75.73476831 409.36853805 71.24175881 406.11972298 66.74755859 402.87255859 C63.012055 400.17401978 59.2751852 397.47742047 55.53515625 394.78515625 C47.8253607 389.23194687 40.14294965 383.64492561 32.5 378 C30.13561632 376.25644715 27.77070634 374.51361351 25.40527344 372.77148438 C23.76737439 371.5651714 22.13002607 370.35811039 20.49316406 369.15039062 C18.04125683 367.34452337 15.58389215 365.54634054 13.125 363.75 C12.38185547 363.20085937 11.63871094 362.65171875 10.87304688 362.0859375 C8.94116841 360.68028632 6.98491075 359.32923287 5 358 C4.17628906 357.43667969 3.35257813 356.87335938 2.50390625 356.29296875 C-1.9394418 355.77307623 -4.82492292 358.92226235 -8.1875 361.5625 C-9.80690868 362.78436193 -11.42671118 364.00570205 -13.046875 365.2265625 C-13.87123047 365.85723633 -14.69558594 366.48791016 -15.54492188 367.13769531 C-19.28969885 369.97830378 -23.11462812 372.70349827 -26.9375 375.4375 C-33.15496729 379.91806279 -39.33586317 384.44641536 -45.5 389 C-53.87948458 395.19011119 -62.31107363 401.30474309 -70.76611328 407.39111328 C-74.51359769 410.09012118 -78.25661201 412.79531494 -82 415.5 C-86.48610379 418.74131453 -90.97304831 421.98141954 -95.46484375 425.21484375 C-103.17463431 430.76804954 -110.85732841 436.35470282 -118.5 442 C-124.96389729 446.77106729 -131.4373549 451.52839623 -137.9375 456.25 C-138.68902344 456.79914063 -139.44054687 457.34828125 -140.21484375 457.9140625 C-140.91609375 458.42195313 -141.61734375 458.92984375 -142.33984375 459.453125 C-142.95206787 459.89817383 -143.56429199 460.34322266 -144.19506836 460.80175781 C-146.06678166 462.04433442 -147.98473383 463.01210749 -150 464 C-148.55390471 456.87175868 -146.50961364 450.08766327 -144.2109375 443.19140625 C-143.8357901 442.05348129 -143.4606427 440.91555634 -143.0741272 439.7431488 C-142.05668734 436.65808047 -141.03569266 433.57421477 -140.01348877 430.49072266 C-138.27135282 425.22950873 -136.54080504 419.96446104 -134.80908966 414.69981003 C-134.36743176 413.35715584 -133.92563309 412.01454794 -133.48369598 410.67198563 C-128.92243056 396.81304638 -124.47327119 382.91937685 -120.05072021 369.015625 C-116.02163065 356.35608787 -111.93576049 343.71654203 -107.78125 331.09765625 C-107.3366604 329.74629016 -106.89208028 328.39492095 -106.44750977 327.04354858 C-104.49269342 321.10363236 -102.5349032 315.16474316 -100.5666275 309.22927189 C-99.572501 306.22811201 -98.58369893 303.22519625 -97.59375 300.22265625 C-97.2289856 299.12832779 -96.86422119 298.03399933 -96.48840332 296.9065094 C-96.15900757 295.9049028 -95.82961182 294.9032962 -95.49023438 293.87133789 C-95.20096069 292.9984462 -94.91168701 292.1255545 -94.61364746 291.22621155 C-93.86713206 288.9028501 -93.86713206 288.9028501 -94 286 C-95.38874612 284.57964674 -95.38874612 284.57964674 -97.3046875 283.3203125 C-98.02390381 282.81056885 -98.74312012 282.3008252 -99.48413086 281.77563477 C-100.27311768 281.23092529 -101.06210449 280.68621582 -101.875 280.125 C-103.54052317 278.9494434 -105.20588338 277.7736559 -106.87109375 276.59765625 C-108.1547583 275.69877686 -108.1547583 275.69877686 -109.46435547 274.78173828 C-113.31393051 272.07673167 -117.12612494 269.32094355 -120.9375 266.5625 C-121.67597168 266.02963379 -122.41444336 265.49676758 -123.17529297 264.94775391 C-129.44550221 260.41829032 -135.67056227 255.82889062 -141.89208984 251.23291016 C-149.4766884 245.63567826 -157.1158833 240.11591373 -164.76611328 234.60888672 C-169.26523169 231.36853805 -173.75824119 228.11972298 -178.25244141 224.87255859 C-181.987945 222.17401978 -185.7248148 219.47742047 -189.46484375 216.78515625 C-197.96814776 210.66039881 -206.43046597 204.48415641 -214.85913086 198.25708008 C-220.55035305 194.05682267 -226.26591452 189.8915419 -232 185.75 C-232.75990234 185.20085937 -233.51980469 184.65171875 -234.30273438 184.0859375 C-237.17783777 182.01312737 -240.05031877 179.96645415 -243 178 C-243 177.34 -243 176.68 -243 176 C-150.93 175.505 -150.93 175.505 -57 175 C-42.97862768 132.15972821 -42.97862768 132.15972821 -29.18286133 89.25415039 C-19.67221447 59.43288634 -9.80398145 29.7257937 0 0 Z " fill="#FDB500" transform="translate(255,22)"/>
<path d="M0 0 C0.66 0 1.32 0 2 0 C26.21995037 73.36522685 26.21995037 73.36522685 35.5625 102.6875 C43.26396106 126.82737375 51.1348451 150.91296313 59 175 C120.38 175.33 181.76 175.66 245 176 C245 176.66 245 177.32 245 178 C243.63330078 179.21411133 243.63330078 179.21411133 241.6953125 180.58203125 C240.97609619 181.09499756 240.25687988 181.60796387 239.51586914 182.13647461 C238.72688232 182.68956299 237.93789551 183.24265137 237.125 183.8125 C235.45953745 184.99725813 233.79417557 186.18215778 232.12890625 187.3671875 C231.27312988 187.97272461 230.41735352 188.57826172 229.53564453 189.20214844 C225.69523375 191.92512022 221.87807075 194.6798791 218.0625 197.4375 C217.32692871 197.96811035 216.59135742 198.4987207 215.83349609 199.04541016 C210.27951543 203.05762217 204.76037245 207.11567123 199.25 211.1875 C192.73131921 216.00394216 186.1755172 220.76022935 179.5703125 225.45703125 C168.33484157 233.44845775 157.19855572 241.57422395 146.10888672 249.76635742 C138.54000603 255.3520272 130.91668417 260.86042052 123.28222656 266.35595703 C118.55033105 269.76466311 113.82559969 273.18330477 109.09936523 276.59985352 C104.74279829 279.74724263 100.37616082 282.87990631 96 286 C97.44609529 293.12824132 99.49038636 299.91233673 101.7890625 306.80859375 C102.3517836 308.51548119 102.3517836 308.51548119 102.9258728 310.2568512 C103.94331266 313.34191953 104.96430734 316.42578523 105.98651123 319.50927734 C107.72864718 324.77049127 109.45919496 330.03553896 111.19091034 335.30018997 C111.63256824 336.64284416 112.07436691 337.98545206 112.51630402 339.32801437 C117.07752767 353.18682672 121.53001847 367.07937972 125.94827271 380.984375 C129.75629014 392.96424874 133.61962779 404.92392609 137.5755806 416.85575485 C138.24949814 418.88904397 138.92233226 420.92268838 139.59481812 422.95645142 C140.03910299 424.29975045 140.48340834 425.64304271 140.92773438 426.98632812 C141.14646524 427.64763418 141.36519611 428.30894024 141.59055519 428.99028587 C142.89128465 432.91966713 144.20038934 436.84613966 145.51550388 440.77072811 C146.51838898 443.77069498 147.51010398 446.77435806 148.50390625 449.77734375 C149.05879478 451.41883644 149.05879478 451.41883644 149.62489319 453.0934906 C149.95436447 454.0950972 150.28383575 455.0967038 150.62329102 456.12866211 C150.91478531 457.0015538 151.2062796 457.8744455 151.50660706 458.77378845 C152 461 152 461 151 464 C149.8984375 463.20442708 148.796875 462.40885417 147.6953125 461.61328125 C146.97609619 461.09386963 146.25687988 460.57445801 145.51586914 460.03930664 C143.89778232 458.87064248 142.27978353 457.70185644 140.66186523 456.53295898 C136.59818606 453.59731798 132.53347686 450.66314716 128.46484375 447.734375 C119.97383561 441.61870428 111.52457791 435.45048938 103.10791016 429.23291016 C95.5233116 423.63567826 87.8841167 418.11591373 80.23388672 412.60888672 C75.73476831 409.36853805 71.24175881 406.11972298 66.74755859 402.87255859 C63.012055 400.17401978 59.2751852 397.47742047 55.53515625 394.78515625 C47.8253607 389.23194687 40.14294965 383.64492561 32.5 378 C30.13561632 376.25644715 27.77070634 374.51361351 25.40527344 372.77148438 C23.76737439 371.5651714 22.13002607 370.35811039 20.49316406 369.15039062 C18.04125683 367.34452337 15.58389215 365.54634054 13.125 363.75 C12.38185547 363.20085937 11.63871094 362.65171875 10.87304688 362.0859375 C8.94116841 360.68028632 6.98491075 359.32923287 5 358 C4.17628906 357.43667969 3.35257813 356.87335938 2.50390625 356.29296875 C-1.9394418 355.77307623 -4.82492292 358.92226235 -8.1875 361.5625 C-9.80690868 362.78436193 -11.42671118 364.00570205 -13.046875 365.2265625 C-13.87123047 365.85723633 -14.69558594 366.48791016 -15.54492188 367.13769531 C-19.28969885 369.97830378 -23.11462812 372.70349827 -26.9375 375.4375 C-33.15496729 379.91806279 -39.33586317 384.44641536 -45.5 389 C-53.87948458 395.19011119 -62.31107363 401.30474309 -70.76611328 407.39111328 C-74.51359769 410.09012118 -78.25661201 412.79531494 -82 415.5 C-86.48610379 418.74131453 -90.97304831 421.98141954 -95.46484375 425.21484375 C-103.17463431 430.76804954 -110.85732841 436.35470282 -118.5 442 C-124.96389729 446.77106729 -131.4373549 451.52839623 -137.9375 456.25 C-138.68902344 456.79914063 -139.44054687 457.34828125 -140.21484375 457.9140625 C-140.91609375 458.42195313 -141.61734375 458.92984375 -142.33984375 459.453125 C-142.95206787 459.89817383 -143.56429199 460.34322266 -144.19506836 460.80175781 C-146.06678166 462.04433442 -147.98473383 463.01210749 -150 464 C-148.55390471 456.87175868 -146.50961364 450.08766327 -144.2109375 443.19140625 C-143.8357901 442.05348129 -143.4606427 440.91555634 -143.0741272 439.7431488 C-142.05668734 436.65808047 -141.03569266 433.57421477 -140.01348877 430.49072266 C-138.27135282 425.22950873 -136.54080504 419.96446104 -134.80908966 414.69981003 C-134.36743176 413.35715584 -133.92563309 412.01454794 -133.48369598 410.67198563 C-128.92243056 396.81304638 -124.47327119 382.91937685 -120.05072021 369.015625 C-116.02163065 356.35608787 -111.93576049 343.71654203 -107.78125 331.09765625 C-107.3366604 329.74629016 -106.89208028 328.39492095 -106.44750977 327.04354858 C-104.49269342 321.10363236 -102.5349032 315.16474316 -100.5666275 309.22927189 C-99.572501 306.22811201 -98.58369893 303.22519625 -97.59375 300.22265625 C-97.2289856 299.12832779 -96.86422119 298.03399933 -96.48840332 296.9065094 C-96.15900757 295.9049028 -95.82961182 294.9032962 -95.49023438 293.87133789 C-95.20096069 292.9984462 -94.91168701 292.1255545 -94.61364746 291.22621155 C-93.86713206 288.9028501 -93.86713206 288.9028501 -94 286 C-95.38874612 284.57964674 -95.38874612 284.57964674 -97.3046875 283.3203125 C-98.02390381 282.81056885 -98.74312012 282.3008252 -99.48413086 281.77563477 C-100.27311768 281.23092529 -101.06210449 280.68621582 -101.875 280.125 C-103.54052317 278.9494434 -105.20588338 277.7736559 -106.87109375 276.59765625 C-108.1547583 275.69877686 -108.1547583 275.69877686 -109.46435547 274.78173828 C-113.31393051 272.07673167 -117.12612494 269.32094355 -120.9375 266.5625 C-121.67597168 266.02963379 -122.41444336 265.49676758 -123.17529297 264.94775391 C-129.44550221 260.41829032 -135.67056227 255.82889062 -141.89208984 251.23291016 C-149.4766884 245.63567826 -157.1158833 240.11591373 -164.76611328 234.60888672 C-169.26523169 231.36853805 -173.75824119 228.11972298 -178.25244141 224.87255859 C-181.987945 222.17401978 -185.7248148 219.47742047 -189.46484375 216.78515625 C-197.96814776 210.66039881 -206.43046597 204.48415641 -214.85913086 198.25708008 C-220.55035305 194.05682267 -226.26591452 189.8915419 -232 185.75 C-232.75990234 185.20085937 -233.51980469 184.65171875 -234.30273438 184.0859375 C-237.17783777 182.01312737 -240.05031877 179.96645415 -243 178 C-243 177.34 -243 176.68 -243 176 C-150.93 175.505 -150.93 175.505 -57 175 C-42.97862768 132.15972821 -42.97862768 132.15972821 -29.18286133 89.25415039 C-19.67221447 59.43288634 -9.80398145 29.7257937 0 0 Z M0 28 C-2.27922661 34.94613117 -4.55714419 41.89269024 -6.83347702 48.83977032 C-7.89096856 52.06696804 -8.948879 55.29402707 -10.0078125 58.52075195 C-11.23028142 62.24654314 -12.45121489 65.97283462 -13.671875 69.69921875 C-14.04495789 70.8351799 -14.41804077 71.97114105 -14.8024292 73.14152527 C-16.97902548 79.79188101 -19.07708779 86.46175434 -21.12310791 93.15339661 C-22.11016682 96.35762811 -23.14723338 99.54179723 -24.21875 102.71875 C-24.59386719 103.83636719 -24.96898437 104.95398438 -25.35546875 106.10546875 C-26.11848958 108.36848958 -26.88151042 110.63151042 -27.64453125 112.89453125 C-29.4961387 118.41117612 -31.30351288 123.93350662 -33 129.5 C-35.39267013 137.35080081 -38.02252756 145.11800837 -40.64453125 152.89453125 C-44.21615387 163.53575741 -47.56261635 174.03177355 -50 185 C-104.78 185 -159.56 185 -216 185 C-211.78436113 189.2514972 -211.78436113 189.2514972 -207.2421875 192.83984375 C-206.54416016 193.33806641 -205.84613281 193.83628906 -205.12695312 194.34960938 C-204.38380859 194.87361328 -203.64066406 195.39761719 -202.875 195.9375 C-201.25718457 197.09156817 -199.64001796 198.24654632 -198.0234375 199.40234375 C-196.77771973 200.29155518 -196.77771973 200.29155518 -195.50683594 201.19873047 C-191.47657182 204.09464873 -187.48883375 207.04741425 -183.5 210 C-175.12117809 216.19099462 -166.68891357 222.3047523 -158.23388672 228.39111328 C-153.73476831 231.63146195 -149.24175881 234.88027702 -144.74755859 238.12744141 C-141.012055 240.82598022 -137.2751852 243.52257953 -133.53515625 246.21484375 C-125.80163862 251.785376 -118.09877374 257.39293916 -110.4375 263.0625 C-101.72018045 269.51212627 -92.88709314 275.78700019 -84 282 C-84.51500193 289.96738276 -87.22624033 297.20183297 -89.8125 304.6875 C-90.69698253 307.27373079 -91.57732979 309.86135832 -92.45703125 312.44921875 C-92.67469147 313.0873349 -92.89235168 313.72545105 -93.11660767 314.38290405 C-94.85091535 319.49227895 -96.44313057 324.63758412 -98.01049805 329.80004883 C-100.09450919 336.53953416 -102.39083199 343.21035153 -104.64453125 349.89453125 C-105.01964844 351.01214844 -105.39476562 352.12976563 -105.78125 353.28125 C-106.2772168 354.75174805 -106.2772168 354.75174805 -106.78320312 356.25195312 C-107.82716053 359.46761004 -108.82682431 362.69104732 -109.81347656 365.92456055 C-112.17450628 373.62564609 -114.6834067 381.27567352 -117.203125 388.92578125 C-117.69076054 390.40932252 -118.17828698 391.89289966 -118.66571045 393.37651062 C-119.93373295 397.23512803 -121.20321244 401.09326447 -122.47302246 404.95129395 C-123.77458233 408.90668632 -125.0747271 412.86254378 -126.375 416.81835938 C-128.91530168 424.54602228 -131.45714666 432.27317637 -134 440 C-130.52080594 440 -129.88298833 439.43728985 -127.18359375 437.39453125 C-126.42876709 436.82984131 -125.67394043 436.26515137 -124.89624023 435.68334961 C-124.08485596 435.06596924 -123.27347168 434.44858887 -122.4375 433.8125 C-120.70893052 432.5174317 -118.97974957 431.2231792 -117.25 429.9296875 C-116.37214844 429.2706543 -115.49429688 428.61162109 -114.58984375 427.93261719 C-110.73686648 425.05741281 -106.84051023 422.24421719 -102.9375 419.4375 C-102.19935059 418.90543945 -101.46120117 418.37337891 -100.70068359 417.82519531 C-97.72499751 415.68052162 -94.74769759 413.53809336 -91.77050781 411.39550781 C-83.31406964 405.3076125 -74.88111091 399.19131259 -66.5 393 C-56.64592179 385.72057378 -46.71425666 378.55169676 -36.77050781 371.39550781 C-34.53389885 369.78534512 -32.29813187 368.17401899 -30.0625 366.5625 C-29.33264893 366.03744873 -28.60279785 365.51239746 -27.85083008 364.97143555 C-23.80190711 362.05122799 -19.78093853 359.09805777 -15.78515625 356.10546875 C-14.9233374 355.462146 -14.06151855 354.81882324 -13.17358398 354.15600586 C-11.50883239 352.91099047 -9.84799594 351.660718 -8.19165039 350.40454102 C-7.44004639 349.84307373 -6.68844238 349.28160645 -5.9140625 348.703125 C-5.2535791 348.20458008 -4.5930957 347.70603516 -3.91259766 347.19238281 C-1.8597137 345.91254043 -0.40855925 345.24918188 2 345 C4.68576937 346.58829267 7.07562161 348.20182425 9.5625 350.0625 C10.30701416 350.60398682 11.05152832 351.14547363 11.81860352 351.70336914 C14.22195394 353.45628643 16.61139136 355.22706173 19 357 C20.56973722 358.15442849 22.14004634 359.30807974 23.7109375 360.4609375 C26.89234372 362.79888888 30.06862783 365.14359866 33.2421875 367.4921875 C37.82691144 370.8797579 42.43862205 374.22863159 47.0625 377.5625 C47.80177734 378.09552734 48.54105469 378.62855469 49.30273438 379.17773438 C51.53463937 380.78587553 53.76718791 382.39311858 56 384 C65.28521077 390.68226075 74.54949699 397.38889007 83.75 404.1875 C90.25588491 408.9944877 96.79873817 413.74161201 103.390625 418.4296875 C125.40159688 434.08607936 125.40159688 434.08607936 134 441 C134.66 440.67 135.32 440.34 136 440 C135.72153229 439.1542894 135.44306458 438.3085788 135.15615845 437.4372406 C132.48000963 429.30917237 129.80478139 421.18080179 127.13048744 413.05212307 C125.75690014 408.87712149 124.3830052 404.70222178 123.00830078 400.52758789 C121.41339322 395.68408353 119.81959235 390.840216 118.2265625 385.99609375 C117.96373726 385.19707012 117.70091202 384.39804649 117.43012238 383.57481003 C114.63684439 375.07961396 111.85651086 366.58060356 109.12011719 358.06689453 C108.89255674 357.35915547 108.6649963 356.65141642 108.43054008 355.92223072 C107.37176811 352.62711246 106.31615351 349.33105093 105.26480103 346.03355408 C103.24849644 339.7388139 101.14301042 333.49827139 98.83566284 327.30384827 C97.64798668 324.02953053 96.69586259 320.7278711 95.75 317.375 C92.44124779 305.83173512 88.69508555 294.42405315 85 283 C96.5381013 274.46520428 108.11843115 265.99348434 119.76611328 257.60888672 C123.51359769 254.90987882 127.25661201 252.20468506 131 249.5 C135.48610379 246.25868547 139.97304831 243.01858046 144.46484375 239.78515625 C152.17462973 234.23195376 159.85757631 228.64562795 167.5 223 C173.66417945 218.44638387 179.8472602 213.9212015 186.0625 209.4375 C186.79170654 208.91091797 187.52091309 208.38433594 188.2722168 207.84179688 C192.15703135 205.03955122 196.05053003 202.25008946 199.953125 199.47265625 C200.76644287 198.89136963 201.57976074 198.31008301 202.41772461 197.71118164 C203.96781649 196.6035668 205.52055137 195.49963759 207.07641602 194.40014648 C207.77951904 193.89684814 208.48262207 193.3935498 209.20703125 192.875 C210.12705933 192.22144531 210.12705933 192.22144531 211.06567383 191.5546875 C213.54481971 189.5621088 215.75094084 187.24905916 218 185 C163.22 185 108.44 185 52 185 C51.34 182.03 50.68 179.06 50 176 C49.54843999 174.40697808 49.07286798 172.82017243 48.5546875 171.24755859 C48.15234138 170.01562523 48.15234138 170.01562523 47.74186707 168.75880432 C47.45580093 167.89738327 47.1697348 167.03596222 46.875 166.1484375 C46.57173294 165.2233287 46.26846588 164.29821991 45.95600891 163.34507751 C44.97456452 160.35375673 43.98732137 157.36438556 43 154.375 C41.97863384 151.26753311 40.95868447 148.15960347 39.938797 145.051651 C39.25895181 142.9803085 38.5786041 140.90913087 37.89775085 138.83811951 C35.88733224 132.71995612 33.89361349 126.59683622 31.92578125 120.46484375 C31.5836409 119.39910126 31.5836409 119.39910126 31.23458862 118.31182861 C30.20241255 115.09402645 29.17310461 111.87534251 28.14648438 108.65576172 C26.18465033 102.53683281 24.10171801 96.48794341 21.87768555 90.4597168 C20.67532995 87.09011107 19.70845477 83.69757611 18.75 80.25 C16.75404151 73.23839097 14.43230921 66.37142932 12 59.5 C9.03925328 51.13306431 6.33117728 42.74131661 3.91015625 34.203125 C3.31880844 32.12198678 2.68416581 30.05249742 2 28 C1.34 28 0.68 28 0 28 Z " fill="#0D0900" transform="translate(255,22)" stroke="currentColor" stroke-width="15"/>
</svg>
 