{"accessors" : [{"bufferView" : 0, "byteOffset" : 0, "componentType" : 5123, "count" : 90, "type" : "SCALAR", "max" : [63], "min" : [0]}, {"bufferView" : 1, "byteOffset" : 0, "componentType" : 5126, "count" : 64, "type" : "VEC3", "max" : [0.5, 0.5, 0.4999999701976776], "min" : [-0.5, -0.5, -0.5], "name" : "POSITION"}, {"bufferView" : 1, "byteOffset" : 12, "componentType" : 5126, "count" : 64, "type" : "VEC3", "max" : [0.8805969953536987, 0.4403178095817566, 0.8805969953536987], "min" : [-0.8805969953536987, -1.0000044107437134, -0.8805969953536987], "name" : "NORMAL"}], "asset" : {"generator" : "Aspose.3D 24.6.0", "version" : "2.0"}, "buffers" : [{"uri" : "data:application/octet-stream;base64,", "byteLength" : 1724}], "bufferViews" : [{"buffer" : 0, "byteOffset" : 0, "byteLength" : 180, "target" : 34963}, {"buffer" : 0, "byteOffset" : 184, "byteLength" : 1536, "byteStride" : 24, "target" : 34962}], "materials" : [{"name" : "Material_0.001", "pbrMetallicRoughness" : {"baseColorFactor" : [1, 1, 1, 1], "metallicFactor" : 0, "roughnessFactor" : 0.5}, "emissiveFactor" : [0, 0, 0], "alphaMode" : "OPAQUE", "doubleSided" : true}], "meshes" : [{"primitives" : [{"attributes" : {"POSITION" : 1, "NORMAL" : 2}, "indices" : 0, "material" : 0, "mode" : 4}]}], "nodes" : [{"mesh" : 0, "name" : "Mesh_0.001"}], "scene" : 0, "scenes" : [{"nodes" : [0]}]}